<?xml version="1.0" encoding="UTF-8" standalone="no"?>
<!-- Created with Inkscape (http://www.inkscape.org/) -->

<svg
   width="210mm"
   height="297mm"
   viewBox="0 0 210 297"
   version="1.1"
   id="svg1"
   xml:space="preserve"
   inkscape:version="1.3.2 (091e20ef0f, 2023-11-25, custom)"
   sodipodi:docname="tsuki.svg"
   xmlns:inkscape="http://www.inkscape.org/namespaces/inkscape"
   xmlns:sodipodi="http://sodipodi.sourceforge.net/DTD/sodipodi-0.dtd"
   xmlns="http://www.w3.org/2000/svg"
   xmlns:svg="http://www.w3.org/2000/svg"><sodipodi:namedview
     id="namedview1"
     pagecolor="#505050"
     bordercolor="#ffffff"
     borderopacity="1"
     inkscape:showpageshadow="0"
     inkscape:pageopacity="0"
     inkscape:pagecheckerboard="1"
     inkscape:deskcolor="#d1d1d1"
     inkscape:document-units="mm"
     inkscape:zoom="0.37585602"
     inkscape:cx="-486.88857"
     inkscape:cy="658.49684"
     inkscape:window-width="1896"
     inkscape:window-height="1121"
     inkscape:window-x="10"
     inkscape:window-y="65"
     inkscape:window-maximized="1"
     inkscape:current-layer="layer1" /><defs
     id="defs1" /><g
     inkscape:label="Layer 1"
     inkscape:groupmode="layer"
     id="layer1"><rect
       style="font-variation-settings:'wght' 600;fill:#111427;stroke-width:18.2807;stroke-linecap:square"
       id="rect2"
       width="144.80307"
       height="144.80307"
       x="-165.93431"
       y="81.16011" /><ellipse
       style="font-variation-settings:'wght' 600;fill:#111427;fill-opacity:1;stroke:none;stroke-width:16.9;stroke-linecap:square"
       id="path15"
       cx="110.90863"
       cy="153.56165"
       rx="72.426018"
       ry="72.401543"
       inkscape:export-filename="../tsuki-web/favicon.png"
       inkscape:export-xdpi="44.88995"
       inkscape:export-ydpi="44.88995" /><path
       style="font-variation-settings:'wght' 900;fill:#faebd6;fill-opacity:1;stroke-width:13.9847;stroke-linecap:square"
       d="m 144.41687,130.85155 c -5.65065,-5.56594 -13.34191,-8.86711 -21.13408,-9.01789 l -2.13873,-0.0413 2.73471,0.31352 c 1.50397,0.17264 3.5138,0.52012 4.46638,0.77211 3.42887,0.90698 5.94377,1.98168 9.13702,3.90437 1.75086,1.0542 2.63432,1.79584 5.28927,4.43934 3.35834,3.34392 4.21925,4.48078 5.96491,7.87965 1.01659,1.97932 2.26451,5.41741 2.75664,7.59463 0.82456,3.64802 0.83135,7.75049 0.16261,12.58281 -1.1574,6.29514 -4.05892,11.83186 -8.68647,16.45941 -5.43466,5.43466 -11.73856,8.39928 -19.59608,9.21558 l -1.86431,0.19367 2.2553,-0.0307 c 1.24062,-0.0168 3.47959,-0.27606 4.97539,-0.57662 9.3366,-1.87598 17.61341,-8.25143 21.93505,-16.89535 1.29793,-2.59603 2.31492,-5.77504 2.80523,-8.30534 l 0.017,-0.007 c 0.0237,-0.14543 0.0434,-0.28793 0.065,-0.43192 0.0937,-0.53943 0.15707,-1.03149 0.19293,-1.48428 0.44637,-4.11352 0.10249,-7.54761 -0.35079,-9.96028 -0.008,-0.0528 -0.0226,-0.11809 -0.0318,-0.17357 -0.10286,-0.53079 -0.20831,-1.00273 -0.31279,-1.42436 -0.0108,-0.0412 -0.0176,-0.0753 -0.0289,-0.11728 -0.33043,-1.30802 -0.62386,-2.05234 -0.62888,-2.07221 -1.6231,-4.86545 -3.38524,-7.85481 -6.88208,-11.67332 -0.35799,-0.39093 -0.72575,-0.77227 -1.10246,-1.14333 z"
       id="path14" /><path
       style="font-variation-settings:'wght' 900;fill:#faebd6;fill-opacity:1;stroke-width:13.9847;stroke-linecap:square"
       d="m 143.50774,121.31807 c -11.18221,-11.34682 -26.64282,-15.96418 -42.34964,-12.64785 -13.130767,2.77243 -24.967203,11.9104 -31.148807,24.0482 -1.753767,3.4436 -3.60536,9.08862 -4.296461,13.09694 -0.743817,4.3142 -0.766864,11.01959 -0.05188,15.18341 1.030516,6.00149 3.336544,12.03145 6.522886,17.05613 2.733229,4.31015 5.460662,7.43231 9.243719,10.58184 8.173149,6.80441 17.732563,10.4034 28.504347,10.73239 9.00337,0.27495 18.76829,-2.53886 26.36269,-7.59683 2.79082,-1.85873 7.06669,-5.57033 8.85127,-7.68343 l 1.37028,-1.62314 -1.83179,1.53581 c -8.90015,7.46066 -20.29136,10.55098 -31.69399,8.59804 -13.546644,-2.32015 -25.402988,-12.50563 -29.667073,-25.48681 -0.460224,-1.40107 -1.070933,-3.69636 -1.357493,-5.10072 -0.527655,-2.5861 -0.587967,-3.8577 -0.112545,-2.37369 0.43499,1.35779 2.370612,5.26028 3.58063,7.21863 1.7282,2.797 4.541848,6.12156 7.032267,8.309 2.432245,2.13634 2.513508,1.91607 0.335814,-0.91023 -7.230411,-9.38395 -8.847341,-23.29832 -4.015468,-34.55257 1.22488,-2.85296 3.114715,-6.02285 4.723623,-7.9224 0.735943,-0.86888 1.209441,-1.57406 1.052379,-1.56688 -0.522989,0.0239 -4.023833,3.32899 -5.927642,5.59585 -1.033359,1.23042 -2.53156,3.3025 -3.329233,4.60451 -1.432147,2.33765 -3.323661,6.25443 -3.420577,7.08342 -0.02745,0.23478 -0.143793,0.4268 -0.258705,0.4268 -0.690652,-1e-5 1.542541,-8.24656 3.198043,-11.80924 4.447522,-9.57114 12.715153,-16.95899 22.71045,-20.29437 11.69907,-3.90393 25.31268,-1.8195 34.66584,5.30755 4.57494,3.48606 4.55225,3.48257 1.30707,0.18964 z"
       id="path13" /><text
       xml:space="preserve"
       style="font-style:normal;font-variant:normal;font-weight:normal;font-stretch:normal;font-size:31.9829px;line-height:1.3;font-family:'Noto Sans JP';-inkscape-font-specification:'Noto Sans JP, @wght=600';font-variant-ligatures:normal;font-variant-caps:normal;font-variant-numeric:normal;font-variant-east-asian:normal;font-variation-settings:'wght' 600;letter-spacing:0.177005px;fill:#faebd6;fill-opacity:1;stroke-width:11.3061;stroke-linecap:square"
       x="104.23241"
       y="164.93158"
       id="text15"><tspan
         sodipodi:role="line"
         id="tspan15"
         x="104.23241"
         y="164.93158"
         style="font-style:normal;font-variant:normal;font-weight:normal;font-stretch:normal;font-size:31.9829px;font-family:'Noto Sans JP';-inkscape-font-specification:'Noto Sans JP, @wght=600';font-variant-ligatures:normal;font-variant-caps:normal;font-variant-numeric:normal;font-variant-east-asian:normal;font-variation-settings:'wght' 600;fill:#faebd6;fill-opacity:1;stroke-width:11.3061">月</tspan></text><path
       style="font-variation-settings:'wght' 900;fill:#faebd6;fill-opacity:1;stroke-width:13.9847;stroke-linecap:square"
       d="m -60.024547,130.85155 c -5.65065,-5.56594 -13.34191,-8.86711 -21.13408,-9.01789 l -2.13873,-0.0413 2.73471,0.31352 c 1.50397,0.17264 3.5138,0.52012 4.46638,0.77211 3.42887,0.90698 5.94377,1.98168 9.13702,3.90437 1.75086,1.0542 2.63432,1.79584 5.28927,4.43934 3.35834,3.34392 4.21925,4.48078 5.96491,7.87965 1.01659,1.97932 2.26451,5.41741 2.75664,7.59463 0.82456,3.64802 0.83135,7.75049 0.16261,12.58281 -1.1574,6.29514 -4.05892,11.83186 -8.68647,16.45941 -5.43466,5.43466 -11.73856,8.39928 -19.59608,9.21558 l -1.86431,0.19367 2.2553,-0.0307 c 1.24062,-0.0168 3.47959,-0.27606 4.97539,-0.57662 9.3366,-1.87598 17.61341,-8.25143 21.93505,-16.89535 1.29793,-2.59603 2.31492,-5.77504 2.80523,-8.30534 l 0.017,-0.007 c 0.0237,-0.14543 0.0434,-0.28793 0.065,-0.43192 0.0937,-0.53943 0.15707,-1.03149 0.19293,-1.48428 0.44637,-4.11352 0.10249,-7.54761 -0.35079,-9.96028 -0.008,-0.0528 -0.0226,-0.11809 -0.0318,-0.17357 -0.10286,-0.53079 -0.20831,-1.00273 -0.31279,-1.42436 -0.0108,-0.0412 -0.0176,-0.0753 -0.0289,-0.11728 -0.33043,-1.30802 -0.62386,-2.05234 -0.62888,-2.07221 -1.6231,-4.86545 -3.38524,-7.85481 -6.88208,-11.67332 -0.35799,-0.39093 -0.72575,-0.77227 -1.10246,-1.14333 z"
       id="path1" /><path
       style="font-variation-settings:'wght' 900;fill:#faebd6;fill-opacity:1;stroke-width:13.9847;stroke-linecap:square"
       d="m -60.933677,121.31807 c -11.18221,-11.34682 -26.64282,-15.96418 -42.349643,-12.64785 -13.13076,2.77243 -24.9672,11.9104 -31.1488,24.0482 -1.75377,3.4436 -3.60536,9.08862 -4.29647,13.09694 -0.74381,4.3142 -0.76686,11.01959 -0.0519,15.18341 1.03052,6.00149 3.33655,12.03145 6.52289,17.05613 2.73323,4.31015 5.46066,7.43231 9.24372,10.58184 8.17315,6.80441 17.73256,10.4034 28.504347,10.73239 9.00337,0.27495 18.76829,-2.53886 26.36269,-7.59683 2.79082,-1.85873 7.06669,-5.57033 8.85127,-7.68343 l 1.37028,-1.62314 -1.83179,1.53581 c -8.90015,7.46066 -20.29136,10.55098 -31.69399,8.59804 -13.546647,-2.32015 -25.402987,-12.50563 -29.667077,-25.48681 -0.46022,-1.40107 -1.07093,-3.69636 -1.35749,-5.10072 -0.52765,-2.5861 -0.58797,-3.8577 -0.11254,-2.37369 0.43499,1.35779 2.37061,5.26028 3.58063,7.21863 1.7282,2.797 4.54184,6.12156 7.03226,8.309 2.43225,2.13634 2.51351,1.91607 0.33582,-0.91023 -7.23041,-9.38395 -8.84734,-23.29832 -4.01547,-34.55257 1.22488,-2.85296 3.11471,-6.02285 4.72362,-7.9224 0.73594,-0.86888 1.20944,-1.57406 1.05238,-1.56688 -0.52299,0.0239 -4.02383,3.32899 -5.92764,5.59585 -1.03336,1.23042 -2.53156,3.3025 -3.32923,4.60451 -1.43215,2.33765 -3.32367,6.25443 -3.42058,7.08342 -0.0275,0.23478 -0.14379,0.4268 -0.25871,0.4268 -0.69065,-1e-5 1.54254,-8.24656 3.19805,-11.80924 4.44752,-9.57114 12.71515,-16.95899 22.710447,-20.29437 11.69907,-3.90393 25.31268,-1.8195 34.66584,5.30755 4.57494,3.48606 4.55225,3.48257 1.30707,0.18964 z"
       id="path2" /><text
       xml:space="preserve"
       style="font-style:normal;font-variant:normal;font-weight:normal;font-stretch:normal;font-size:31.9829px;line-height:1.3;font-family:'Noto Sans JP';-inkscape-font-specification:'Noto Sans JP, @wght=600';font-variant-ligatures:normal;font-variant-caps:normal;font-variant-numeric:normal;font-variant-east-asian:normal;font-variation-settings:'wght' 600;letter-spacing:0.177005px;fill:#faebd6;fill-opacity:1;stroke-width:11.3061;stroke-linecap:square"
       x="-100.20901"
       y="164.93158"
       id="text2"><tspan
         sodipodi:role="line"
         id="tspan2"
         x="-100.20901"
         y="164.93158"
         style="font-style:normal;font-variant:normal;font-weight:normal;font-stretch:normal;font-size:31.9829px;font-family:'Noto Sans JP';-inkscape-font-specification:'Noto Sans JP, @wght=600';font-variant-ligatures:normal;font-variant-caps:normal;font-variant-numeric:normal;font-variant-east-asian:normal;font-variation-settings:'wght' 600;fill:#faebd6;fill-opacity:1;stroke-width:11.3061">月</tspan></text></g></svg>
